<svg xmlns="http://www.w3.org/2000/svg" viewBox="0 0 100 100" role="img" aria-label="FDRI logo mark (placeholder)">
  <defs><clipPath id="c"><circle cx="50" cy="50" r="46"/></clipPath></defs>
  <g clip-path="url(#c)">
    <rect x="0" y="0" width="50" height="100" fill="#1f6f96"/>
    <rect x="50" y="0" width="50" height="100" fill="#e6a93a"/>
    <g stroke="#ffffff" stroke-width="2.4" fill="none" opacity="0.85" stroke-linecap="round">
      <path d="M6 32 q11 -7 22 0 t22 0"/>
      <path d="M6 50 q11 -7 22 0 t22 0"/>
      <path d="M6 68 q11 -7 22 0 t22 0"/>
    </g>
    <g stroke="#9c6b18" stroke-width="2.2" fill="none" opacity="0.8" stroke-linecap="round">
      <path d="M58 24 l8 12 l-5 12 l9 10"/>
      <path d="M74 30 l-6 14 l7 11 l-4 13"/>
      <path d="M88 26 l-7 16 l6 12"/>
    </g>
  </g>
  <circle cx="50" cy="50" r="46" fill="none" stroke="#16384f" stroke-width="3"/>
</svg>
