<svg xmlns="http://www.w3.org/2000/svg" viewBox="0 0 360 220" role="img" aria-label="Gridded Data Service illustration (placeholder)">
  <rect width="360" height="220" fill="#eceef0"/>
  <g transform="translate(118,66) skewX(-22)"><g><rect x="0" y="0" width="22" height="18" fill="#8d969d" opacity="0.4"/><rect x="26" y="0" width="22" height="18" fill="#8d969d" opacity="0.51"/><rect x="52" y="0" width="22" height="18" fill="#8d969d" opacity="0.62"/><rect x="78" y="0" width="22" height="18" fill="#8d969d" opacity="0.73"/><rect x="104" y="0" width="22" height="18" fill="#8d969d" opacity="0.84"/><rect x="0" y="22" width="22" height="18" fill="#8d969d" opacity="0.51"/><rect x="26" y="22" width="22" height="18" fill="#8d969d" opacity="0.62"/><rect x="52" y="22" width="22" height="18" fill="#8d969d" opacity="0.73"/><rect x="78" y="22" width="22" height="18" fill="#8d969d" opacity="0.84"/><rect x="104" y="22" width="22" height="18" fill="#8d969d" opacity="0.95"/><rect x="0" y="44" width="22" height="18" fill="#8d969d" opacity="0.62"/><rect x="26" y="44" width="22" height="18" fill="#8d969d" opacity="0.73"/><rect x="52" y="44" width="22" height="18" fill="#8d969d" opacity="0.84"/><rect x="78" y="44" width="22" height="18" fill="#8d969d" opacity="0.95"/><rect x="104" y="44" width="22" height="18" fill="#8d969d" opacity="1.06"/><rect x="0" y="66" width="22" height="18" fill="#8d969d" opacity="0.73"/><rect x="26" y="66" width="22" height="18" fill="#8d969d" opacity="0.84"/><rect x="52" y="66" width="22" height="18" fill="#8d969d" opacity="0.95"/><rect x="78" y="66" width="22" height="18" fill="#8d969d" opacity="1.06"/><rect x="104" y="66" width="22" height="18" fill="#8d969d" opacity="1.17"/></g></g>
  <text x="180" y="208" text-anchor="middle" font-family="system-ui,Segoe UI,Arial,sans-serif" font-size="10" fill="#9aa1a7" letter-spacing="1.5">ILLUSTRATION — REPLACE</text>
</svg>