<svg xmlns="http://www.w3.org/2000/svg" viewBox="0 0 900 460" role="img" aria-label="Time Series Data Explorer screenshot (placeholder)">
 <rect width="900" height="460" fill="#f3f4f5"/>
 <rect x="14" y="14" width="280" height="432" rx="4" fill="#ffffff" stroke="#dfe2e5"/>
 <rect x="14" y="14" width="280" height="30" rx="4" fill="#eef1f3"/>
 <text x="30" y="34" font-family="system-ui,Arial" font-size="12" fill="#3a3f44">Plot Management</text>
 <rect x="28" y="70" width="250" height="30" rx="4" fill="#f6f7f8" stroke="#e3e6e8"/><circle cx="44" cy="85" r="6" fill="#2f7fb0"/><rect x="58" y="78" width="120" height="6" rx="3" fill="#c9d0d5"/><rect x="58" y="88" width="80" height="5" rx="2" fill="#dfe3e6"/><rect x="28" y="110" width="250" height="30" rx="4" fill="#f6f7f8" stroke="#e3e6e8"/><circle cx="44" cy="125" r="6" fill="#2f7fb0"/><rect x="58" y="118" width="120" height="6" rx="3" fill="#c9d0d5"/><rect x="58" y="128" width="80" height="5" rx="2" fill="#dfe3e6"/><rect x="28" y="150" width="250" height="30" rx="4" fill="#f6f7f8" stroke="#e3e6e8"/><circle cx="44" cy="165" r="6" fill="#2f7fb0"/><rect x="58" y="158" width="120" height="6" rx="3" fill="#c9d0d5"/><rect x="58" y="168" width="80" height="5" rx="2" fill="#dfe3e6"/><rect x="28" y="190" width="250" height="30" rx="4" fill="#f6f7f8" stroke="#e3e6e8"/><circle cx="44" cy="205" r="6" fill="#2f7fb0"/><rect x="58" y="198" width="120" height="6" rx="3" fill="#c9d0d5"/><rect x="58" y="208" width="80" height="5" rx="2" fill="#dfe3e6"/>
 <rect x="308" y="14" width="578" height="432" rx="4" fill="#ffffff" stroke="#dfe2e5"/>
 <rect x="308" y="14" width="578" height="30" rx="4" fill="#eef1f3"/>
 <text x="324" y="34" font-family="system-ui,Arial" font-size="12" fill="#3a3f44">Data Visualization</text>
 <text x="597" y="70" text-anchor="middle" font-family="system-ui,Arial" font-size="13" fill="#3a3f44" font-weight="bold">Plot 1</text>
 <line x1="330" y1="100" x2="330" y2="360" stroke="#cdd3d8"/><line x1="330" y1="360" x2="862" y2="360" stroke="#cdd3d8"/>
 <polyline fill="none" stroke="#2f7fb0" stroke-width="1.6" points="330,258 336,265 342,257 348,259 354,233 360,254 366,247 372,260 378,284 384,275 390,259 396,240 401,241 407,248 413,287 419,289 425,272 431,279 437,261 443,229 449,254 455,265 461,263 467,264 473,283 479,226 485,231 491,251 497,296 503,284 509,265 515,282 521,240 527,231 532,208 538,252 544,267 550,266 556,256 562,247 568,232 574,217 580,245 586,255 592,252 598,259 604,204 610,211 616,253 622,266 628,275 634,273 640,284 646,224 652,230 658,251 663,252 669,266 675,252 681,257 687,240 693,245 699,234 705,234 711,289 717,255 723,264 729,234 735,225 741,230 747,261 753,277 759,250 765,270 771,224 777,254 783,232 789,277 794,269 800,265 806,280 812,235 818,245 824,234 830,247 836,283 842,273 848,245 854,252 860,230"/><polyline fill="none" stroke="#d56a3c" stroke-width="1.6" points="330,261 336,273 342,263 348,301 354,213 360,260 366,230 372,276 378,253 384,241 390,264 396,261 401,242 407,236 413,288 419,256 425,247 431,276 437,213 443,242 449,209 455,277 461,251 467,281 473,265 479,239 485,263 491,224 497,241 503,259 509,264 515,262 521,227 527,232 532,239 538,251 544,254 550,267 556,267 562,225 568,214 574,245 580,239 586,266 592,276 598,285 604,234 610,225 616,222 622,257 628,277 634,247 640,279 646,255 652,238 658,223 663,263 669,289 675,286 681,280 687,212 693,224 699,260 705,236 711,272 717,260 723,264 729,227 735,248 741,261 747,280 753,263 759,294 765,243 771,223 777,233 783,217 789,275 794,259 800,259 806,251 812,255 818,255 824,231 830,276 836,272 842,272 848,260 854,249 860,222"/><polyline fill="none" stroke="#3aa06a" stroke-width="1.6" points="330,247 336,257 342,250 348,285 354,222 360,221 366,245 372,241 378,261 384,249 390,267 396,208 401,231 407,224 413,278 419,271 425,274 431,287 437,242 443,219 449,227 455,270 461,247 467,260 473,290 479,215 485,231 491,255 497,261 503,253 509,273 515,243 521,233 527,222 532,254 538,255 544,262 550,263 556,267 562,254 568,237 574,223 580,280 586,264 592,286 598,255 604,239 610,237 616,247 622,274 628,265 634,259 640,269 646,222 652,237 658,241 663,249 669,256 675,275 681,269 687,230 693,262 699,243 705,270 711,256 717,275 723,270 729,228 735,233 741,238 747,245 753,269 759,284 765,258 771,241 777,234 783,232 789,261 794,287 800,277 806,269 812,225 818,248 824,248 830,275 836,256 842,270 848,265 854,223 860,219"/><polyline fill="none" stroke="#c23b3b" stroke-width="1.6" points="330,267 336,278 342,266 348,276 354,226 360,240 366,226 372,268 378,260 384,278 390,283 396,248 401,235 407,250 413,271 419,239 425,242 431,253 437,242 443,230 449,231 455,269 461,264 467,267 473,260 479,247 485,229 491,255 497,254 503,245 509,252 515,238 521,226 527,236 532,237 538,258 544,258 550,261 556,244 562,245 568,245 574,237 580,265 586,272 592,272 598,249 604,243 610,243 616,230 622,253 628,238 634,241 640,254 646,257 652,252 658,235 663,265 669,260 675,266 681,266 687,227 693,226 699,259 705,277 711,276 717,273 723,254 729,246 735,238 741,241 747,267 753,254 759,257 765,269 771,253 777,219 783,231 789,274 794,282 800,255 806,247 812,262 818,249 824,219 830,243 836,256 842,253 848,268 854,226 860,226"/>
 <text x="597" y="440" text-anchor="middle" font-family="system-ui,Arial" font-size="10" fill="#9aa1a7" letter-spacing="1.5">SCREENSHOT — REPLACE</text>
</svg>